<?xml version="1.0" encoding="UTF-8" standalone="no"?>
<svg
   xmlns:dc="http://purl.org/dc/elements/1.1/"
   xmlns:cc="http://creativecommons.org/ns#"
   xmlns:rdf="http://www.w3.org/1999/02/22-rdf-syntax-ns#"
   xmlns:svg="http://www.w3.org/2000/svg"
   xmlns="http://www.w3.org/2000/svg"
   xmlns:sodipodi="http://sodipodi.sourceforge.net/DTD/sodipodi-0.dtd"
   xmlns:inkscape="http://www.inkscape.org/namespaces/inkscape"
   id="Layer_1"
   data-name="Layer 1"
   viewBox="-1 0 124.72439 109.6063"
   version="1.1"
   sodipodi:docname="basinmaker2.svg"
   width="33mm"
   height="29mm"
   inkscape:version="0.92.5 (2060ec1f9f, 2020-04-08)">
  <metadata
     id="metadata3790">
    <rdf:RDF>
      <cc:Work
         rdf:about="">
        <dc:format>image/svg+xml</dc:format>
        <dc:type
           rdf:resource="http://purl.org/dc/dcmitype/StillImage" />
        <dc:title>toolbox-repairing</dc:title>
      </cc:Work>
    </rdf:RDF>
  </metadata>
  <sodipodi:namedview
     pagecolor="#ffffff"
     bordercolor="#666666"
     borderopacity="1"
     objecttolerance="10"
     gridtolerance="10"
     guidetolerance="10"
     inkscape:pageopacity="0"
     inkscape:pageshadow="2"
     inkscape:window-width="1920"
     inkscape:window-height="1049"
     id="namedview3788"
     showgrid="false"
     scale-x="1.4"
     height="1"
     units="mm"
     viewbox-width="95.6"
     viewbox-x="-1"
     inkscape:zoom="2.14995"
     inkscape:cx="61.439999"
     inkscape:cy="54.884998"
     inkscape:window-x="1920"
     inkscape:window-y="0"
     inkscape:window-maximized="1"
     inkscape:current-layer="Layer_1" />
  <defs
     id="defs3781">
    <style
       id="style3779">.cls-1{fill-rule:evenodd;}</style>
  </defs>
  <title
     id="title3783">toolbox-repairing</title>
  <path
     class="cls-1"
     d="M 26.13,8.6462884 A 17.18,17.18 0 0 0 13.24,4.5562888 c 14,11.4200002 -2.58,26.1700002 -11.79,9.0000002 -3.78,8.49 0.16,16.31 8,20.33 3.7,1.9 5.65,3 7,4.53 a 11.73,11.73 0 0 1 1.86,2.92 l 3.49,8.26 H 7.11 a 2.32,2.32 0 0 0 -2.31,2.34 V 92.836284 A 16.87,16.87 0 0 0 21.62,109.65629 H 96.79 A 16.87,16.87 0 0 0 113.61,92.836284 V 51.936289 a 2.32,2.32 0 0 0 -2.32,-2.32 h -22.4 l 13.07,-22 -9.37,-5.4 -16.38,27.4 H 65.79 v -2.86 a 0.57,0.57 0 0 0 -0.12,-0.35 c -0.5,-0.6 -0.88,-1 -1.2,-1.41 v 0 c -0.74,-0.86 -1.12,-1.29 -1.12,-1.57 0,-0.28 0.36,-0.75 1.09,-1.65 0.3,-0.37 0.66,-0.81 1.08,-1.36 a 0.57,0.57 0 0 0 0.13,-0.36 v -3.17 a 0.55,0.55 0 0 0 -0.55,-0.55 h -4.85 l 0.09,-22.09 2.92,-5.1100006 a 2.85,2.85 0 0 0 0.46,-1.55 V 2.5862888 a 2.83,2.83 0 0 0 -2.9,-2.74999956 H 54 A 2.83,2.83 0 0 0 51.21,2.7062888 l 0.08,5.5399996 a 2.79,2.79 0 0 0 0.52,1.59 l 2.73,3.9100006 -0.09,22.63 h -5.74 a 0.55,0.55 0 0 0 -0.55,0.56 v 3.1 a 0.54,0.54 0 0 0 0.14,0.36 c 0.47,0.52 0.87,1 1.22,1.32 1,1.07 1.48,1.59 1.49,2 0.01,0.41 -0.41,0.86 -1.19,1.85 -0.39,0.49 -0.87,1.1 -1.44,1.86 a 0.5,0.5 0 0 0 -0.12,0.35 v 1.86 H 35.19 l -5.5,-12.91 a 12.84,12.84 0 0 1 -1.11,-3.79 14.19,14.19 0 0 1 0.28,-3.75 c 1.33,-7.78 4,-14.25 -2.73,-20.5200006 z M 9.43,63.776287 H 109 V 54.246289 H 9.43 Z m 99.57,4.63 H 95.13 v 7.79 a 3.17,3.17 0 0 1 -3.13,3.17 H 80.86 a 3.18,3.18 0 0 1 -3.17,-3.17 v -7.79 H 41.82 v 7.79 a 3.18,3.18 0 0 1 -3.17,3.17 h -11.1 a 3.18,3.18 0 0 1 -3.18,-3.17 v -7.79 H 9.43 V 92.836284 A 12.24,12.24 0 0 0 21.62,105.03629 H 96.79 A 12.24,12.24 0 0 0 109,92.836284 Z M 75.29,18.666289 a 15.81,15.81 0 0 1 5.3,-2.57 10.13,10.13 0 0 1 7.87,0.85 l 20.38,11.75 -1.23,2.14 7.75,4.51 7.52,-13 -7.74,-4.51 -1.4,2.36 L 93.48,8.5162884 a 10.31,10.31 0 0 0 -8,-1.38 c -4.24,1.14 -7.65,5.0000006 -10.23,11.5300006 z"
     id="path3785"
     inkscape:connector-curvature="0"
     style="fill-rule:evenodd" />
</svg>
