<?xml version="1.0" encoding="UTF-8" standalone="no"?>
<svg
   xmlns:dc="http://purl.org/dc/elements/1.1/"
   xmlns:cc="http://creativecommons.org/ns#"
   xmlns:rdf="http://www.w3.org/1999/02/22-rdf-syntax-ns#"
   xmlns:svg="http://www.w3.org/2000/svg"
   xmlns="http://www.w3.org/2000/svg"
   xmlns:sodipodi="http://sodipodi.sourceforge.net/DTD/sodipodi-0.dtd"
   xmlns:inkscape="http://www.inkscape.org/namespaces/inkscape"
   id="Layer_1"
   data-name="Layer 1"
   viewBox="-1 0 124.72439 109.6063"
   version="1.1"
   sodipodi:docname="gis2.svg"
   width="33mm"
   height="29mm"
   inkscape:version="0.92.5 (2060ec1f9f, 2020-04-08)">
  <metadata
     id="metadata3790">
    <rdf:RDF>
      <cc:Work
         rdf:about="">
        <dc:format>image/svg+xml</dc:format>
        <dc:type
           rdf:resource="http://purl.org/dc/dcmitype/StillImage" />
        <dc:title>toolbox-repairing</dc:title>
      </cc:Work>
    </rdf:RDF>
  </metadata>
  <sodipodi:namedview
     pagecolor="#ffffff"
     bordercolor="#666666"
     borderopacity="1"
     objecttolerance="10"
     gridtolerance="10"
     guidetolerance="10"
     inkscape:pageopacity="0"
     inkscape:pageshadow="2"
     inkscape:window-width="1920"
     inkscape:window-height="1049"
     id="namedview3788"
     showgrid="false"
     scale-x="1.4"
     height="1"
     units="mm"
     viewbox-width="95.6"
     viewbox-x="-1"
     inkscape:zoom="2.14995"
     inkscape:cx="61.439999"
     inkscape:cy="92.095167"
     inkscape:window-x="1920"
     inkscape:window-y="0"
     inkscape:window-maximized="1"
     inkscape:current-layer="Layer_1" />
  <defs
     id="defs3781">
    <style
       id="style3779">.cls-1{fill-rule:evenodd;}</style>
  </defs>
  <title
     id="title3783">toolbox-repairing</title>
  <g
     style="clip-rule:evenodd;fill-rule:evenodd;image-rendering:optimizeQuality;shape-rendering:geometricPrecision;text-rendering:geometricPrecision"
     id="g3906"
     transform="matrix(0.22440846,0,0,0.21570156,13.679076,0.22140378)">
    <path
       id="path3895"
       d="m 391.09,313.35 c 0.07,3.5 -2.31,6.48 -5.58,7.27 -4.22,1.4 -8.85,3.49 -13.25,3.6 -3.42,0.07 -6.34,-2.22 -7.22,-5.36 l -7.23,-20.55 c -1.16,-3.31 -2.3,-6.55 -3.42,-9.86 l -13.75,25.99 c -1.51,2.82 -7.33,5.95 -9.76,7.57 -3.38,2.24 -7.93,1.33 -10.17,-2.04 -0.57,-0.86 -0.94,-1.79 -1.1,-2.73 l -8.12,-40.54 -11.13,-7.55 -25.84,-4.04 c 0.91,1.37 1.84,2.74 2.75,4.08 4.74,6.98 9.16,13.5 10.73,20.28 2.52,10.9 -1.38,20.14 -19.47,27.07 0.54,0.31 1.07,0.64 1.58,1.02 7.22,5.28 9.1,13.26 -5.95,33.83 -3.81,5.19 -7.08,9.77 -9.82,13.76 -2.15,3.14 -4.16,6.15 -6,9.05 l 4.02,25.28 c 0.54,3.41 -0.21,6.74 -2.34,9.99 -3.39,5.12 -8.32,7.13 -12.5,11.24 -0.57,0.57 -1.1,1.14 -1.57,1.69 l 1.75,7.21 c 0.66,2.69 -0.27,5.39 -2.17,7.13 -1.22,1.1 -3.04,1.79 -4.52,2.47 -0.48,2.09 -1.21,4.14 -2.15,6.17 -3.21,6.89 -9.28,13.82 -16.14,17.2 -7.63,3.77 -16.36,2.98 -24.72,3.16 -4.05,0.08 -7.41,-3.13 -7.49,-7.18 -0.07,-3.32 -0.55,-6.82 -1.43,-10.54 -2.09,-8.88 -6.27,-16.85 -8.66,-25.7 -2.11,-7.81 -3.28,-18.38 1.35,-25.49 0.68,-1 0.71,-6.29 0.69,-7.54 -0.11,-4.67 -2.21,-9.33 -4.57,-13.27 -2.14,-3.56 -6.46,-10.5 -6.54,-14.59 -0.26,-11.98 -4.42,-14.52 -10.12,-14.4 -8.74,0.18 -17.5,2.82 -26.53,3.01 -3.85,0.08 -7.68,-1.6 -11.46,-5.01 -5.69,-5.14 -11.36,-14.61 -15.04,-21.46 -3.24,-6.01 -2.99,-7.34 -3.13,-13.98 -0.63,-20.35 -1.21,-39.59 18.12,-54.19 7.89,-11.74 15.06,-19.4 23.78,-24.36 9.07,-5.18 19.25,-7.13 33.06,-7.42 4.05,-0.09 7.4,3.13 7.49,7.18 l 0.22,10.4 8.88,3.66 0.12,-0.6 c 1.61,-8.46 10.74,-5.7 16.08,-3.88 6.43,2.17 9.98,5.86 17.63,4.2 2.9,-0.64 2.26,-1.43 2.56,-4.38 l -8.7,0.97 c -2.19,0.23 -4.26,-0.53 -5.76,-1.92 -1.3,-1.21 -1.81,-2.73 -2.81,-4.15 -3.28,-4.66 -8.84,-7.35 -15.6,-10.62 -8.29,-4.01 -18.04,-8.73 -28.63,-18.4 -34.8,13.18 -45.96,15.13 -48.94,7.36 -1.75,-4.54 0.55,-8.26 3.64,-13.27 2.78,-4.52 6.75,-10.94 6.62,-16.89 a 7.335,7.335 0 0 1 4.74,-7.02 l 29.22,-14.11 c -6.96,0 -9.64,-12.02 -10.75,-16.92 -1.56,-6.88 7.02,-9.93 11.58,-13.15 3.1,-2.2 6.81,-5.02 11.12,-8.46 l 0.27,-0.22 c -26.96,4.79 -52.49,15.72 -74.88,31.44 -39.8,27.95 -68,72.05 -76.54,119.96 -2.19,12.28 -3.15,24.94 -2.87,37.97 0.27,13.02 1.77,25.62 4.47,37.8 0.15,0.66 0.3,1.32 0.46,1.98 l 34.27,15.51 c 3.17,1.43 4.28,4.19 4.34,7.36 0.32,9.13 -2.02,16.08 -4.42,23.21 -1.86,5.51 -3.76,11.15 -3.95,17.74 -0.01,0.7 -0.12,1.37 -0.32,2 13.67,19.29 31.24,36.06 51.15,48.81 20.73,13.28 44.05,22.69 68.3,27.01 24.68,4.4 51.31,3.83 75.78,-1.61 24.05,-5.34 46.95,-15.73 67.1,-29.88 19.58,-13.75 36.59,-31.49 49.5,-51.64 13.27,-20.7 22.7,-44.08 27.01,-68.3 2.17,-12.23 3.13,-24.83 2.86,-37.79 -0.13,2.75 -0.24,5.61 -0.18,8.38 z M 296.75,49.74 c 21.51,0 38.93,17.43 38.93,38.94 0,21.5 -17.42,38.92 -38.93,38.92 -21.5,0 -38.93,-17.42 -38.93,-38.92 0,-21.51 17.43,-38.94 38.93,-38.94 z m 45.01,146.36 c -9.85,10.79 -21.35,20.51 -34.3,28.5 a 14.22,14.22 0 0 1 -16.05,0.58 c -19.2,-12.21 -35.37,-26.97 -48.11,-42.97 -17.7,-22.2 -28.87,-46.97 -32.73,-70.91 -4.03,-24.93 -0.17,-49.04 12.38,-68.8 5,-7.86 11.39,-15.02 19.19,-21.24 17.6,-14.02 37.89,-21.42 58.15,-21.26 19.72,0.16 39.16,7.45 55.86,22.68 5.85,5.35 10.83,11.49 14.9,18.21 13.4,22.1 16.4,50.03 10.61,78.08 -5.6,27.16 -19.44,54.7 -39.9,77.13 z m -42.74,17.1 C 367.23,171.84 393.55,76 346.6,33.17 317.98,7.05 280.48,8.84 250.96,32.36 199.21,73.59 222.41,164.53 299.02,213.2 Z m 70.77,-20.43 c 14.8,21.42 25.67,45.62 31.34,71.04 2.91,13.13 4.52,26.69 4.82,40.66 0.3,13.98 -0.74,27.6 -3.1,40.84 -4.66,26.16 -14.81,51.28 -29.13,73.63 -13.96,21.79 -32.25,40.87 -53.43,55.74 -21.71,15.25 -46.41,26.46 -72.33,32.23 -26.37,5.86 -54.9,6.47 -81.5,1.73 C 140.29,503.97 115.18,493.83 92.83,479.5 71.03,465.53 51.96,447.26 37.09,426.07 21.85,404.36 10.62,379.66 4.87,353.74 1.95,340.61 0.34,327.05 0.05,313.07 c -0.3,-13.98 0.73,-27.6 3.1,-40.84 9.21,-51.69 39.59,-99.2 82.55,-129.36 31.11,-21.84 66.33,-34.34 104.37,-36.69 0.19,1.52 0.41,3.05 0.66,4.57 0.83,5.17 1.95,10.38 3.33,15.59 -3.16,0.06 -3.3,0.07 -6.27,1.74 -2.65,1.49 -5.97,3.82 -9.95,7 -4.27,3.39 -8.2,6.37 -11.8,8.92 -2.1,1.49 -4.02,2.78 -5.77,3.89 2.73,0.58 4.99,1.98 6.88,10.24 1.21,5.23 3.75,13.44 -2.53,16.47 l -27.46,13.25 c -1.18,8.07 -5.42,14.95 -8.55,20.03 -0.06,0.1 -0.14,0.18 -0.22,0.25 3.47,-2.19 11.78,-9.46 31.76,-17.18 a 7.335,7.335 0 0 1 8.25,1.5 c 10.09,10.12 19.89,14.86 28.08,18.83 8.58,4.15 15.69,7.59 20.87,14.85 l 11.82,-1.31 c 2.34,-0.44 4.66,0.16 6.43,1.79 a 7.312,7.312 0 0 1 2.37,5.24 c 0.11,5.19 -0.04,14.85 -2.92,19.55 -2.53,4.11 -6.71,6.46 -11.46,7.5 -10.08,2.24 -15.21,-0.44 -23.98,-4.09 -0.35,1.87 -0.52,3.24 -1.8,4.83 a 7.329,7.329 0 0 1 -8.49,2.18 l -21.11,-8.71 c -2.88,-0.94 -5,-3.62 -5.07,-6.83 l -0.16,-7.61 c -7.7,0.66 -13.69,2.19 -18.83,5.12 -6.7,3.82 -12.54,10.28 -19.33,20.51 -0.51,0.85 -1.19,1.61 -2.04,2.21 -14.12,10.14 -13.64,25.94 -13.13,42.68 0.1,3.38 0.17,4.72 0.19,5.74 0.01,0.34 0.39,0.23 1.2,1.72 2.79,5.21 7.7,13.65 11.98,17.52 0.89,0.8 1.34,1.2 1.35,1.2 8.92,-0.19 17.66,-2.81 26.53,-3.01 14.23,-0.29 24.58,4.77 25.09,28.77 0,0.03 4.3,7.17 4.45,7.41 5.51,9.22 7.88,18.25 6.17,28.95 -1.56,9.64 -5.35,8.93 -2.07,21.04 2.43,8.96 6.6,16.92 8.79,26.16 0.5,2.13 0.9,4.21 1.2,6.23 3.83,-0.08 8.23,0.28 11.71,-1.44 5.16,-2.56 10.34,-9.81 10.84,-15.61 0.16,-3.38 2.1,-5.31 4.99,-6.66 -0.83,-3.38 -2.28,-6.84 -0.27,-10.13 3.17,-5.21 7.81,-9.38 12.79,-12.8 1.49,-1.03 2.51,-1.92 3.07,-2.67 0.21,-0.35 0.21,-0.03 0.13,-0.55 l -4.29,-26.89 c -0.39,-1.81 -0.12,-3.76 0.94,-5.45 2.05,-3.28 4.66,-7.24 7.84,-11.86 3.09,-4.48 6.44,-9.19 10.04,-14.11 7.91,-10.81 9.39,-13.19 9.15,-13.37 -0.51,-0.38 -1.74,-0.85 -3.03,-1.34 -3.93,-1.51 -8.16,-3.16 -11.14,-7.26 -3.35,-4.66 -4.64,-12.32 2.93,-14.07 19.8,-4.58 24.62,-9.1 23.49,-13.96 -0.95,-4.13 -4.63,-9.54 -8.56,-15.33 -3.91,-5.78 -8.05,-11.88 -10.88,-18.58 a 7.324,7.324 0 0 1 -0.71,-4.41 c 0.61,-4 4.35,-6.75 8.35,-6.14 l 39.67,6.21 c 1.95,0.31 3.83,0.46 5.53,1.61 l 14.5,9.81 a 7.354,7.354 0 0 1 3.67,5.02 l 5.98,29.91 17.87,-33.77 c 2.66,-6.05 11.49,-5.79 13.66,0.58 4.53,13.31 9.04,26.44 13.7,39.69 0.16,-4.04 0.46,-9.3 1.03,-14.56 0.57,-5.36 1.42,-10.71 2.65,-14.82 0.9,-3.02 2.1,-5.6 3.65,-7.53 -1.23,-6.95 -2.87,-13.78 -4.92,-20.49 -2.45,-8.09 -5.51,-15.96 -9.16,-23.62 a 189.68,189.68 0 0 0 -10.64,-19.34 c 3.78,-4.6 7.35,-9.35 10.68,-14.22 z M 39.05,396.78 c 0.3,-0.94 0.61,-1.87 0.93,-2.8 1.61,-4.76 3.18,-9.43 3.58,-14.58 L 28,372.37 c 2.97,8.2 6.81,16.75 11.05,24.41 z"
       inkscape:connector-curvature="0"
       style="fill-rule:nonzero" />
  </g>
</svg>
