<?xml version="1.0" encoding="UTF-8" standalone="no"?>
<svg
   id="Layer_1"
   data-name="Layer 1"
   viewBox="-1 0 124.72439 109.6063"
   version="1.1"
   sodipodi:docname="ostrich.svg"
   width="33mm"
   height="29mm"
   inkscape:version="1.2.2 (b0a8486541, 2022-12-01)"
   xml:space="preserve"
   xmlns:inkscape="http://www.inkscape.org/namespaces/inkscape"
   xmlns:sodipodi="http://sodipodi.sourceforge.net/DTD/sodipodi-0.dtd"
   xmlns="http://www.w3.org/2000/svg"
   xmlns:svg="http://www.w3.org/2000/svg"
   xmlns:rdf="http://www.w3.org/1999/02/22-rdf-syntax-ns#"
   xmlns:cc="http://creativecommons.org/ns#"
   xmlns:dc="http://purl.org/dc/elements/1.1/"><metadata
     id="metadata3790"><rdf:RDF><cc:Work
         rdf:about=""><dc:format>image/svg+xml</dc:format><dc:type
           rdf:resource="http://purl.org/dc/dcmitype/StillImage" /><dc:title>toolbox-repairing</dc:title></cc:Work></rdf:RDF></metadata><sodipodi:namedview
     pagecolor="#ffffff"
     bordercolor="#666666"
     borderopacity="1"
     objecttolerance="10"
     gridtolerance="10"
     guidetolerance="10"
     inkscape:pageopacity="0"
     inkscape:pageshadow="2"
     inkscape:window-width="1920"
     inkscape:window-height="1011"
     id="namedview3788"
     showgrid="false"
     scale-x="1.4"
     height="1"
     units="mm"
     viewbox-width="95.6"
     viewbox-x="-1"
     inkscape:zoom="3.3191874"
     inkscape:cx="15.666485"
     inkscape:cy="43.082834"
     inkscape:window-x="0"
     inkscape:window-y="0"
     inkscape:window-maximized="1"
     inkscape:current-layer="Layer_1"
     inkscape:showpageshadow="2"
     inkscape:pagecheckerboard="0"
     inkscape:deskcolor="#d1d1d1"
     inkscape:document-units="mm" /><defs
     id="defs3781"><style
       id="style3779">.cls-1{fill-rule:evenodd;}</style></defs><title
     id="title3783">toolbox-repairing</title><path
     d="m 122.69399,4.7176439 c -0.50127,-0.5005262 -1.56564,-0.3869801 -2.23476,-0.4354963 -0.78338,-0.00911 -1.72526,-0.2771105 -2.46118,-0.4845965 -0.38006,-0.1071569 -1.2932,-0.2176602 -1.46811,-0.5260225 -0.12413,-0.2188102 -0.13467,-0.3284941 -0.28105,-0.5339362 -0.41236,-0.5787286 -1.26876,-1.3432849 -2.06072,-1.481511 0.31215,0.3137839 0.73053,0.5353511 1.07044,0.8265937 0.24478,0.2097305 0.47875,0.4314032 0.672,0.6797359 0.22909,0.2944137 0.32927,0.4031575 -0.10373,0.3991642 0.10208,-0.010565 0.19264,-0.043552 0.29102,-0.060799 -0.4565,-0.8684251 -1.35456,-1.2461276 -2.10991,-1.8606285 -0.33806,-0.34136425 0.054,-0.58089976 -0.60159,-0.47351113 -0.38305,0.0627672 -0.86421,0.0205277 -1.13381,-0.30343438 0.0212,-0.0120359 0.0425,-0.0241467 0.0637,-0.0361866 -0.40639,0 -0.81277,0 -1.21916,0 -0.18018,0 -0.36033,0 -0.54048,0 -0.13319,0 -0.3899,0.21002695 -0.55012,0.25461534 -0.94855,0.26398389 -1.77164,0.76734587 -2.60722,1.22497417 -0.64284,0.352069 -1.39623,0.847516 -2.19572,0.6255542 -0.0511,0.21283 0.0224,0.4149479 0.16498,0.5877694 0.0978,0.1185486 0.21773,0.2212964 0.33688,0.3230143 -0.0409,0.1688463 -0.12974,0.324718 -0.22777,0.4729518 -0.39789,0.6016246 -0.77082,1.2034471 -1.07121,1.8489229 -0.6939,1.4910182 -1.18063,3.1809115 -1.26703,4.7968593 -0.18276,3.418243 0.54733,6.81363 1.55825,10.102502 0.8727,2.83922 2.01573,5.610682 2.91512,8.440565 0.4875,1.469787 0.93293,2.943547 1.36148,4.428835 0.42704,1.479998 0.55563,3.002452 0.74679,4.516237 0.20188,1.521764 -0.0577,3.246935 -0.58287,4.697147 -0.48761,1.333858 -1.82591,2.594434 -3.52205,2.571024 0.12139,0.271999 0.436,0.300758 0.71659,0.370669 0.37168,0.09258 -0.26083,0.715127 -0.40319,0.857161 -0.68202,0.680447 -1.5766,1.215007 -2.54482,1.527765 -0.94116,0.30402 -1.95881,0.436206 -2.95988,0.28711 -1.000252,-0.241258 -1.841759,-0.667872 -2.647451,-1.23242 -1.795423,-1.258044 -3.343446,-2.871255 -4.973024,-4.288203 -0.864133,-0.751398 -1.719868,-1.509177 -2.642225,-2.20594 -0.682413,-0.515481 -1.352966,-1.162662 -2.147127,-1.542595 0.04527,0.371703 0.508273,1.435168 -0.271184,0.784184 -0.651927,-0.545536 -1.472843,-0.997764 -2.295528,-1.320691 -1.352383,-0.530851 -2.806582,-0.701462 -4.272797,-0.708792 -0.837083,-0.004 -1.674472,-0.0032 -2.51111,0.02382 -0.779388,0.02526 -1.426618,-0.658945 -2.16553,-0.861307 -0.702911,-0.192513 -1.505726,-0.175327 -2.234074,-0.126127 -0.928914,0.06276 -1.852013,-0.03454 -2.767406,-0.184854 -1.836185,-0.301513 -3.412836,-1.010198 -5.334765,-0.701466 -1.945063,0.31244 -3.834768,0.864918 -5.734358,1.337784 -1.731184,0.430949 -3.463349,0.623422 -5.248349,0.776308 -1.755403,0.150352 -3.764653,0.303507 -5.481122,-0.03955 -0.244688,-0.04888 -0.49821,-0.06348 -0.747858,-0.04053 0.08364,0.266044 0.324767,0.411665 0.520872,0.609835 -0.341824,0.25844 -0.888267,0.163643 -1.311319,0.174341 -0.554492,0.01402 -1.134073,0.115744 -1.622065,0.353082 -0.369759,0.179842 -0.822588,0.864794 -1.204603,0.88442 -0.644099,0.0331 -1.122314,0.08029 -1.73704,0.275893 -0.459068,0.142128 -0.882102,0.422929 -1.309988,0.629179 -0.697654,0.336286 -1.396403,0.656497 -2.170302,0.835035 -0.606078,0.139825 -1.263523,0.186722 -1.890647,0.157485 -0.6535,-0.03045 -1.266776,-0.222673 -1.912092,-0.279756 -0.06217,0.269089 0.153813,0.435609 0.305086,0.639496 -0.339032,0.107208 -0.617375,-0.07073 -0.962263,-0.109685 -0.303397,-0.03427 -0.605695,-0.07612 -0.909503,-0.103638 -0.85774,-0.07764 -1.734768,-0.118816 -2.595297,-0.05948 -0.590639,0.04072 -1.19957,0.08913 -1.787021,0.162215 -0.749222,0.09322 -1.461101,0.331338 -2.207907,0.415883 0.373754,0.269076 1.12116,0.258826 1.168949,0.770807 0.03111,0.33316 -1.403809,0.777931 -1.735915,0.961155 -1.17611,0.648897 -2.334817,1.45918 -3.303148,2.327861 -1.04413,0.958065 -2.026284,1.950998 -2.873231,3.05215 -0.490315,0.637475 -0.965791,1.277844 -1.407552,1.94294 -0.316085,0.475893 -0.835296,1.012152 -0.953512,1.563412 0.217042,-0.02257 0.989149,-0.249279 0.784117,0.148516 -0.226929,0.440273 -0.578056,0.809606 -0.785236,1.269675 -0.47093,1.045739 -0.704704,2.179372 -1.058159,3.25893 -0.279951,0.855037 -0.553208,1.752982 -1.041424,2.54045 -0.203411,0.3281 -0.413667,0.682952 -0.665791,0.983551 -0.285867,0.340837 -0.660717,0.612001 -0.930822,0.967477 0.539852,0.169104 1.011992,0.0208 1.53448,0.113581 -0.137972,0.295335 -0.401691,0.529698 -0.609326,0.787079 0.391073,0.228962 0.855098,0.215125 1.304702,0.238383 0.513405,0.02659 0.412062,0.06481 0.3877,0.464781 -0.01706,0.475294 -0.118038,0.737363 -0.146861,1.203947 -0.03265,0.528955 -0.0022,1.061536 -0.08434,1.587722 -0.137694,0.881386 -0.477181,1.723618 -1.008654,2.477885 -0.320645,0.455062 -0.742548,0.828073 -1.065186,1.278825 1.387979,0.333332 2.881805,0.06598 4.255123,-0.272905 0.97239,-0.239955 1.928533,-0.628369 2.81571,-1.046416 0.826059,-0.389249 1.507366,-0.908242 2.284169,-1.352266 0.405766,-0.231936 0.964535,-0.176808 1.427011,-0.194151 0.496868,-0.01862 1.0035,-0.02343 1.498245,-0.06646 1.051424,-0.09148 2.118848,-0.323968 3.11198,-0.635455 0.973096,-0.305203 1.886971,-0.715145 2.738945,-1.226811 0.338506,-0.203289 0.671111,-0.512894 1.039511,-0.668043 0.32527,-0.136989 0.445627,0.550246 0.66022,0.742924 0.321656,-0.215817 0.381696,-0.569972 0.504335,-0.884742 0.22049,-0.336634 0.354165,-0.69298 0.62032,-1.012829 0.139417,-0.167545 0.641947,-0.743589 0.927391,-0.529134 0.371676,0.279235 0.590979,0.764241 0.897594,1.098855 0.313574,0.342193 0.682842,0.636731 1.053274,0.930146 0.37754,0.299053 0.290621,0.572754 0.05268,0.927877 -0.498318,0.743811 -0.831791,1.40265 -0.960196,2.264384 0.405589,-0.135396 0.607943,-0.518567 0.993481,-0.704553 0.680517,-0.328277 0.193964,0.575071 0.137538,0.827529 -0.199883,0.864286 -0.505083,2.104512 0.04795,2.92623 0.267417,-0.307297 0.467214,-0.628041 0.86366,-0.825245 0.607875,-0.302367 1.17065,-0.461036 1.81507,-0.675854 1.246033,-0.421414 2.867283,-0.462864 4.193385,-0.525204 0.649295,-0.03677 1.289563,-0.159057 1.941255,-0.169281 0.684759,-0.0097 1.494728,-0.349688 2.168465,-0.166156 0.497909,0.135633 0.907858,0.64976 1.264368,0.957129 0.258592,0.22296 0.533259,0.475341 0.850451,0.634843 0.286744,0.144181 0.620548,0.191494 0.908833,0.332818 -0.105387,0.260958 -0.597075,0.517652 -0.83316,0.686743 -0.341308,0.244457 -0.689771,0.483123 -0.999783,0.758647 -0.750259,0.638918 -1.530513,1.249952 -2.29764,1.873136 -1.200323,0.975096 -2.322563,1.977649 -3.790861,2.651733 -1.606631,0.737594 -3.363518,0.788637 -5.102984,1.12381 -1.711695,0.329831 -3.281867,1.402222 -4.269132,2.640962 -1.156173,1.211237 -1.926563,2.679261 -3.048402,3.919296 -1.088562,1.203275 -2.297772,2.245443 -3.552528,3.31344 -2.482454,2.104189 -5.26567,3.944285 -7.816298,5.986489 -2.688475,2.152568 -5.008387,4.619868 -6.305897,7.620209 -0.272418,0.62993 -0.63148,1.52054 -1.464075,1.72614 -0.758231,0.14326 -1.285688,0.0267 -2.024755,-0.14034 -0.653815,-0.19635 -1.361818,-0.10568 -2.037775,-0.0927 -0.4086951,0.008 -0.8399879,0.12892 -1.183329,0.32131 -0.3602445,0.15135 -0.4859783,0.64293 -0.8325565,0.68507 -0.8264989,0.0984 -1.5003323,-0.40063 -2.1739821,-0.74952 -0.7771522,-0.4025 -1.5233832,-0.76567 -2.4055085,-0.96427 -0.7788009,-0.16778 -4.10816717,-0.81387 -3.90814171,0.68146 -0.0747756,0.50113 1.11021848,1.18709 1.49893531,1.45479 0.6468447,0.46422 1.1698113,1.07728 1.6737078,1.65855 0.5311284,0.6127 1.0833265,1.21247 1.5990785,1.83457 0.2893361,0.349 0.7008101,0.69677 1.1892763,0.82185 0.4502511,0.11531 0.5636323,0.21001 1.0341459,0.21001 0.4890767,0 0.9781654,0 1.467242,0 0.1805672,0 0.1264081,-0.008 0.322015,-0.0871 0.3506603,-0.14162 0.7482743,-0.13572 1.1202137,-0.20319 0.9018533,-0.16358 1.8233143,-0.40107 2.7152173,-0.61255 0.882313,-0.18365 1.80644,-0.3874 2.71206,-0.44593 0.782854,-0.0506 1.568425,-0.0132 2.352176,-0.0392 2.013994,-0.0668 2.691887,-1.47116 3.59479,-2.78254 0.975963,-1.41748 1.844593,-2.88278 2.950252,-4.23674 1.130574,-1.384456 2.329508,-2.710648 3.589652,-4.006174 1.149959,-1.182234 2.350111,-2.318006 3.566797,-3.447836 1.221243,-1.134055 2.543139,-2.250292 3.95157,-3.194401 1.29683,-0.869299 3.010518,-1.190314 4.496682,-1.74841 1.786651,-0.665536 3.31162,-1.474234 4.646146,-2.722118 0.48784,-0.456168 0.973308,-0.97801 1.280964,-1.546048 0.648779,-0.581966 1.204184,-1.127672 2.086801,-1.447581 1.570938,-0.5694 3.306683,-0.723587 4.904386,-1.22716 1.454827,-0.458556 2.842269,-1.257299 4.36866,-1.512402 0.862723,-0.143792 1.722689,-0.302098 2.586228,-0.444896 0.467984,-0.07739 0.928984,-0.178131 1.393008,-0.271282 0.241068,-0.04809 0.48197,-0.09693 0.721771,-0.149753 0.204667,-0.06735 0.21824,0.37688 0.235628,0.458656 0.162786,0.797307 0.377401,1.609941 0.381644,2.419908 0.0046,0.853325 0.0034,1.7024 5.37e-4,2.555752 -0.0051,1.464055 -0.318409,2.976311 -0.704493,4.400925 -0.333542,1.230791 -0.797901,2.392669 -1.522213,3.483115 -0.398284,0.599581 -0.878163,1.081006 -0.994114,1.79398 -0.113933,0.700585 0.02787,1.261161 0.29235,1.904552 0.197098,0.479472 0.930617,0.858425 1.420036,1.079209 0.716811,0.32337 1.579112,0.390439 2.371933,0.338496 0.751823,-0.04928 1.495053,-0.180901 2.244649,-0.251918 0.739142,-0.07001 1.47874,-0.0531 2.217591,-0.110242 -0.184038,0.06257 0.749078,0.09994 0.869698,0.10125 0.424163,0.0046 0.848515,0.0026 1.272456,-0.01082 -0.100988,-0.07973 -0.03064,-0.11289 -0.180235,-0.124424 3.492453,-0.03474 7.132956,0.144963 10.5565,0.765405 2.909055,0.5272 5.815028,1.147793 8.68275,1.864853 1.654521,0.413694 2.444688,1.988934 2.90773,3.336614 0.171839,0.50013 0.331446,1.00509 0.4841,1.50935 0.215797,0.71286 0.872415,1.11631 1.655298,1.32342 0.470555,0.12449 1.725133,0.4013 2.019744,-0.13542 0.328631,-0.59867 -0.49962,-1.61117 -0.729187,-2.16166 -0.371552,-0.89094 0.753138,-0.99185 1.207132,-0.33752 0.444154,0.64013 0.685506,1.36867 1.069565,2.03491 0.381097,0.6611 0.912431,1.24791 1.779941,1.42516 0.490441,0.10019 0.971341,0.0441 1.461061,0.007 0.40744,-0.0304 0.749,0.11301 1.12606,0.22623 0.36367,0.10924 0.70935,0.0906 1.0841,0.12281 0.91482,0.0831 1.94296,0.12255 2.8119,-0.17503 1.48846,-0.50977 0.93422,-1.88947 -0.23077,-2.35276 -1.39718,-0.55563 -2.74459,-0.98191 -3.91624,-1.87279 -1.36859,-1.04064 -2.236235,-2.67454 -3.101149,-4.040343 -0.744391,-1.175485 -1.588917,-2.383327 -2.8048,-3.235553 -1.301037,-0.911914 -2.94105,-0.899039 -4.517015,-0.904975 -0.965266,-0.0032 -1.925925,-0.09455 -2.888997,-0.13952 -0.936508,-0.04369 -1.876953,-6.59e-4 -2.812673,-0.04955 -1.745539,-0.17142 -3.501861,-0.205363 -5.248336,-0.378347 -0.838852,-0.145201 -1.69618,-0.157834 -2.541933,-0.262839 -0.908961,-0.112853 -1.809865,-0.249431 -2.711049,-0.392849 -1.852922,-0.294888 -3.911258,-0.567392 -5.545466,-1.442218 -0.678634,-0.363439 -1.38489,-0.754946 -1.712961,-1.421126 -0.348628,-0.707914 -0.492749,-1.691387 -0.25889,-2.435698 0.975391,-3.10431 4.132987,-5.280029 4.928375,-8.48324 0.177959,-0.709349 0.336555,-1.474576 0.34192,-2.203189 0.0034,-0.463695 -0.242969,-1.938207 0.736184,-1.347345 1.307523,0.788992 2.486433,1.658036 3.912126,2.293682 0.217284,0.09688 0.75146,0.278282 0.66736,0.571045 -0.167375,0.140883 -0.395587,0.197038 -0.550633,0.355201 1.016045,0.410941 2.138428,0.38586 3.228998,0.463332 1.19526,0.08491 2.409293,-0.02843 3.600288,-0.04704 0.884307,-0.01383 1.773663,-0.01823 2.657604,-0.04553 0.223281,-0.0069 1.062235,-0.16055 1.172158,0.08201 0.0431,0.09506 0.0051,0.236174 0.08321,0.296691 0.368075,0.03987 0.73958,-0.01587 1.092752,-0.105267 1.271096,-0.321889 2.430446,-0.828035 3.523929,-1.476143 0.544914,-0.323789 0.975299,-0.707434 1.649179,-0.622021 0.609297,0.07724 1.254304,-0.200257 1.712266,-0.530205 1.030178,-0.742193 1.804529,-1.70098 2.557334,-2.65412 0.377992,-0.478578 0.755908,-0.95751 1.143921,-1.429936 0.318308,-0.387566 0.782788,-1.08736 1.364578,-1.166689 -0.003,0.348201 -0.21291,0.76509 -0.0447,1.103217 0.451,-0.220245 0.79472,-0.7196 1.11714,-1.063701 0.467,-0.498401 0.86298,-1.05574 1.23533,-1.611053 0.69192,-1.03185 1.25559,-2.172515 1.64579,-3.318044 0.3828,-1.255069 0.80263,-2.501473 1.18606,-3.756515 0.1773,-0.580343 0.29352,-1.178374 0.51721,-1.747129 0.0843,-0.214375 0.19126,-0.497177 0.50173,-0.398007 0.10736,0.275 0.20718,0.551117 0.24308,0.841333 0.64264,-0.456168 1.06034,-1.110171 1.48165,-1.718263 0.29935,-0.432068 0.45889,-0.927495 0.80188,-1.338181 0.27437,-0.02052 0.12268,0.6764 0.12319,0.789973 1.14704,-0.672103 1.82156,-2.191531 2.28064,-3.275274 0.63623,-1.502006 1.04944,-3.112919 1.85914,-4.554706 1.56256,-2.78243 2.3714,-5.810661 2.63386,-8.902403 0.28092,-3.309605 0.009,-6.747269 -0.64134,-10.01058 -0.31817,-1.596059 -0.92037,-3.103046 -1.44006,-4.65062 -0.46319,-1.379334 -1.28611,-2.705967 -1.8622,-4.054608 -0.94476,-2.206092 -1.9863,-4.669824 -2.06908,-7.052322 -0.0417,-1.199343 -0.0781,-2.37057 0.1435,-3.553206 0.17522,-0.935107 0.43255,-2.005198 1.30138,-2.646048 0.45568,-0.317942 1.06397,-0.433713 1.46585,-0.816744 0.41535,-0.3479826 0.68198,-0.7495494 1.03512,-1.1401014 0.40639,-0.4425222 0.7783,-0.8264685 1.30298,-1.1574693 0.5215,-0.3265279 1.09879,-0.5293309 1.67999,-0.7595903 1.27506,-0.5099665 2.6733,-0.8188426 3.91698,-1.3800628 0.28099,-0.1267914 0.4941,-0.2836894 0.76224,-0.4444898 0.40397,-0.2422198 0.44201,-0.242838 0.38969,-0.6726431 z M 18.006666,65.344401 c -0.009,-0.137063 -0.009,-0.287507 -0.009,-0.43116 0.01224,0.145727 0.009,0.285051 0.009,0.43116 z"
     id="path266"
     style="stroke-width:0.0727192" /></svg>
