<?xml version="1.0" encoding="UTF-8" standalone="no"?>
<svg
   xmlns:dc="http://purl.org/dc/elements/1.1/"
   xmlns:cc="http://creativecommons.org/ns#"
   xmlns:rdf="http://www.w3.org/1999/02/22-rdf-syntax-ns#"
   xmlns:svg="http://www.w3.org/2000/svg"
   xmlns="http://www.w3.org/2000/svg"
   xmlns:sodipodi="http://sodipodi.sourceforge.net/DTD/sodipodi-0.dtd"
   xmlns:inkscape="http://www.inkscape.org/namespaces/inkscape"
   id="Layer_1"
   data-name="Layer 1"
   viewBox="-1 0 124.72439 109.6063"
   version="1.1"
   sodipodi:docname="precipitation2.svg"
   width="33mm"
   height="29mm"
   inkscape:version="0.92.5 (2060ec1f9f, 2020-04-08)">
  <metadata
     id="metadata3790">
    <rdf:RDF>
      <cc:Work
         rdf:about="">
        <dc:format>image/svg+xml</dc:format>
        <dc:type
           rdf:resource="http://purl.org/dc/dcmitype/StillImage" />
        <dc:title>toolbox-repairing</dc:title>
      </cc:Work>
    </rdf:RDF>
  </metadata>
  <sodipodi:namedview
     pagecolor="#ffffff"
     bordercolor="#666666"
     borderopacity="1"
     objecttolerance="10"
     gridtolerance="10"
     guidetolerance="10"
     inkscape:pageopacity="0"
     inkscape:pageshadow="2"
     inkscape:window-width="1920"
     inkscape:window-height="1049"
     id="namedview3788"
     showgrid="false"
     scale-x="1.4"
     height="1"
     units="mm"
     viewbox-width="95.6"
     viewbox-x="-1"
     inkscape:zoom="2.14995"
     inkscape:cx="61.439999"
     inkscape:cy="92.095167"
     inkscape:window-x="1920"
     inkscape:window-y="0"
     inkscape:window-maximized="1"
     inkscape:current-layer="Layer_1" />
  <defs
     id="defs3781">
    <style
       id="style3779">.cls-1{fill-rule:evenodd;}</style>
  </defs>
  <title
     id="title3783">toolbox-repairing</title>
  <g
     id="g3952"
     transform="translate(0.2128788,0.45120705)">
    <path
       id="path3950"
       d="m 18.23,78.18 c 1.54,0.19 2.63,1.6 2.43,3.14 -0.19,1.54 -1.6,2.63 -3.14,2.43 -2.04,-0.26 -3.9,-0.74 -5.57,-1.43 C 10.23,81.61 8.69,80.68 7.33,79.54 H 7.32 C 6.04,78.47 4.91,77.25 3.96,75.93 1.41,72.41 0.03,68.11 0,63.83 -0.03,59.5 1.32,55.19 4.22,51.71 c 0.94,-1.13 2.05,-2.17 3.32,-3.09 1.48,-1.07 3.17,-1.98 5.07,-2.72 1.32,-0.51 2.72,-0.94 4.21,-1.28 1.68,-6.68 5.27,-11.83 9.88,-15.41 4.31,-3.34 9.51,-5.29 14.85,-5.81 5.32,-0.51 10.8,0.39 15.71,2.75 1.55,0.74 3.04,1.63 4.45,2.66 1.7,-2.07 3.79,-3.82 6.17,-5.12 2.98,-1.63 6.38,-2.55 9.99,-2.55 5.76,0 10.97,2.33 14.75,6.11 3.77,3.77 6.11,8.99 6.11,14.75 0,2.54 -0.46,4.97 -1.29,7.23 -0.87,2.34 -2.14,4.49 -3.74,6.34 -0.08,0.09 -0.16,0.17 -0.25,0.25 0.37,1.87 0.55,3.8 0.53,5.72 -0.05,4.82 -1.36,9.63 -4.01,13.16 -1.73,2.31 -3.96,4.18 -6.63,5.68 -2.57,1.44 -5.57,2.53 -8.93,3.31 -1.51,0.35 -3.02,-0.6 -3.37,-2.11 -0.35,-1.51 0.6,-3.02 2.11,-3.37 2.84,-0.66 5.33,-1.56 7.44,-2.74 2.01,-1.13 3.65,-2.5 4.89,-4.14 1.91,-2.54 2.85,-6.15 2.89,-9.84 0.04,-3.88 -0.9,-7.77 -2.74,-10.6 -0.53,-0.81 -1.11,-1.55 -1.72,-2.21 -2.76,-2.97 -6.27,-4.27 -9.9,-4.3 -2.64,-0.02 -5.37,0.62 -7.96,1.76 -0.58,0.28 -1.15,0.59 -1.72,0.93 -1.72,1.01 -3.42,2.24 -5.15,3.66 l -3.7,-4.24 c 1.28,-1.19 2.66,-2.27 4.13,-3.22 1.17,-0.76 2.39,-1.44 3.65,-2.02 0.5,-0.25 1.02,-0.49 1.53,-0.71 -2.44,-4.32 -5.95,-7.42 -9.93,-9.33 -3.98,-1.91 -8.43,-2.64 -12.76,-2.22 -4.31,0.42 -8.49,1.98 -11.95,4.66 -4,3.1 -7.04,7.73 -8.2,13.87 l -0.36,1.92 -1.91,0.34 c -1.87,0.33 -3.55,0.78 -5.02,1.35 -1.42,0.55 -2.69,1.23 -3.8,2.03 -0.89,0.64 -1.65,1.36 -2.3,2.14 -2.01,2.41 -2.95,5.43 -2.92,8.49 0.02,3.1 1.03,6.24 2.9,8.82 0.69,0.96 1.5,1.83 2.42,2.6 v 0.01 c 0.92,0.77 1.97,1.4 3.16,1.89 1.2,0.52 2.58,0.88 4.11,1.07 z m 24.31,6.1 c 1.68,7.78 6.71,11.66 6.71,15.55 0,3.89 -1.68,7.78 -6.71,7.78 -5.03,0 -6.71,-3.89 -6.71,-7.78 0,-3.89 5.03,-7.78 6.71,-15.55 z M 57.43,63.73 c 1.68,8.44 6.71,12.66 6.71,16.89 0,4.22 -1.68,8.44 -6.71,8.44 -5.03,0 -6.71,-4.22 -6.71,-8.44 0,-4.22 5.03,-8.44 6.71,-16.89 z M 34.97,62.91 c 1.21,5.59 4.82,8.39 4.82,11.19 0,2.8 -1.21,5.59 -4.82,5.59 -3.62,0 -4.82,-2.8 -4.82,-5.59 0,-2.8 3.62,-5.59 4.82,-11.19 z M 65.9,32.58 c 1.71,1.88 3.21,4.04 4.45,6.49 1.22,-0.19 2.45,-0.29 3.66,-0.28 5.14,0.03 10.09,1.87 14,6.08 0.82,0.88 1.59,1.87 2.31,2.98 0.31,0.48 0.61,0.98 0.88,1.5 0.36,-0.66 0.68,-1.34 0.94,-2.06 0.61,-1.64 0.94,-3.43 0.94,-5.3 0,-4.2 -1.7,-8.01 -4.46,-10.76 -2.75,-2.75 -6.56,-4.46 -10.76,-4.46 -2.66,0 -5.15,0.67 -7.3,1.85 -1.8,1 -3.38,2.35 -4.66,3.96 z m 35.9,25.23 c -0.99,-0.97 -1,-2.56 -0.03,-3.55 0.97,-0.99 2.56,-1 3.55,-0.03 l 6.91,6.82 c 0.99,0.97 1,2.56 0.03,3.55 -0.97,0.99 -2.56,1 -3.55,0.03 z m 18.56,-19.15 c 1.38,-0.01 2.51,1.11 2.52,2.5 0.01,1.38 -1.11,2.51 -2.5,2.52 l -9.71,0.06 c -1.38,0.01 -2.51,-1.11 -2.52,-2.5 -0.01,-1.38 1.11,-2.51 2.5,-2.52 z M 106.52,12.04 c 0.99,-0.97 2.58,-0.96 3.55,0.03 0.97,0.99 0.96,2.58 -0.03,3.55 l -6.91,6.82 c -0.99,0.97 -2.58,0.96 -3.55,-0.03 -0.97,-0.99 -0.96,-2.58 0.03,-3.55 z M 78.54,2.51 C 78.53,1.13 79.65,0 81.04,0 c 1.38,-0.01 2.51,1.11 2.52,2.5 l 0.06,9.71 c 0.01,1.38 -1.11,2.51 -2.5,2.51 -1.38,0.01 -2.51,-1.11 -2.52,-2.5 z M 51.38,14.53 c -0.99,-0.97 -1,-2.56 -0.03,-3.55 0.97,-0.99 2.56,-1 3.55,-0.03 l 6.91,6.82 c 0.99,0.97 1,2.56 0.03,3.55 -0.97,0.99 -2.56,1 -3.55,0.03 z"
       inkscape:connector-curvature="0" />
  </g>
</svg>
