<?xml version="1.0" encoding="UTF-8" standalone="no"?>
<svg
   xmlns:dc="http://purl.org/dc/elements/1.1/"
   xmlns:cc="http://creativecommons.org/ns#"
   xmlns:rdf="http://www.w3.org/1999/02/22-rdf-syntax-ns#"
   xmlns:svg="http://www.w3.org/2000/svg"
   xmlns="http://www.w3.org/2000/svg"
   xmlns:sodipodi="http://sodipodi.sourceforge.net/DTD/sodipodi-0.dtd"
   xmlns:inkscape="http://www.inkscape.org/namespaces/inkscape"
   id="Layer_1"
   data-name="Layer 1"
   viewBox="-1 0 124.72439 109.6063"
   version="1.1"
   sodipodi:docname="raven2.svg"
   width="33mm"
   height="29mm"
   inkscape:version="0.92.5 (2060ec1f9f, 2020-04-08)">
  <metadata
     id="metadata3790">
    <rdf:RDF>
      <cc:Work
         rdf:about="">
        <dc:format>image/svg+xml</dc:format>
        <dc:type
           rdf:resource="http://purl.org/dc/dcmitype/StillImage" />
        <dc:title>toolbox-repairing</dc:title>
      </cc:Work>
    </rdf:RDF>
  </metadata>
  <sodipodi:namedview
     pagecolor="#ffffff"
     bordercolor="#666666"
     borderopacity="1"
     objecttolerance="10"
     gridtolerance="10"
     guidetolerance="10"
     inkscape:pageopacity="0"
     inkscape:pageshadow="2"
     inkscape:window-width="1920"
     inkscape:window-height="1049"
     id="namedview3788"
     showgrid="false"
     scale-x="1.4"
     height="1"
     units="mm"
     viewbox-width="95.6"
     viewbox-x="-1"
     inkscape:zoom="2.14995"
     inkscape:cx="61.439999"
     inkscape:cy="92.095167"
     inkscape:window-x="1920"
     inkscape:window-y="0"
     inkscape:window-maximized="1"
     inkscape:current-layer="Layer_1" />
  <defs
     id="defs3781">
    <style
       id="style3779">.cls-1{fill-rule:evenodd;}</style>
    <style
       id="style3993">.cls-1{fill-rule:evenodd;}</style>
  </defs>
  <title
     id="title3783">toolbox-repairing</title>
  <path
     id="path3999"
     d="m 63.195533,82.801953 0.9,-1.53 a 126.15,126.15 0 0 1 -26.83,-2.29 c -12.21,3.74 -23,7 -34.0699997,10.41 a 2.53,2.53 0 0 1 -1.77,-0.59 2.46,2.46 0 0 1 -1.77999996,-0.26 c -0.69000004,-0.7 0.36,-1.07 0.91,-1.19 a 4,4 0 0 1 0.90999996,-0.08 l 7.3599997,-4.68 -3.9999997,0.64 c -1.91,0.88 -3.09,0.71 -3.86999996,0 13.05999966,-9 26.29999966,-16.09 39.08999966,-23.93 7.64,-4.69 13.81,-11.34 20.88,-17.29 6.61,-5.56 14,-9.15 20.19,-11.86 2.5,-11.54 7.55,-19.199999 16.95,-20.3499992 a 10.93,10.93 0 0 1 9.519997,4.2100002 c 6.62,0.09 12.75001,0.49 14.72001,3.589999 -3.79,2.54 -10.00001,3.29 -14.16001,5 -7.21,2.95 -4.62,11.26 -4.08,17.78 0.54,6.52 0.61,13.87 -3.09,21.55 -3.469997,7.2 -9.519997,12.54 -18.499997,15.79 l -12.62,6.67 c -2.14,1 -1.81,0.76 -1.31,3.32 0.84,4.31 2.66,9.16 4.79,14.779997 l 7.46,1.71 c 1.21,0.3 0.77,4.45 -0.92,4.25 l -10,-1.35 -9.78,1.86 c -1,0.32 -1.34,-4.22 -0.49,-4.63 l 8.6,-1.53 a 125.31,125.31 0 0 1 -5.41,-14.899997 c -0.91,-3.06 -1.19,-2.47 0.4,-5.15 z M 100.85553,14.201954 a 1.56,1.56 0 1 1 -1.559997,1.6 1.55,1.55 0 0 1 1.559997,-1.56 z"
     class="cls-1"
     inkscape:connector-curvature="0"
     style="fill-rule:evenodd" />
</svg>
