<?xml version="1.0" encoding="UTF-8" standalone="no"?>
<svg
   xmlns:dc="http://purl.org/dc/elements/1.1/"
   xmlns:cc="http://creativecommons.org/ns#"
   xmlns:rdf="http://www.w3.org/1999/02/22-rdf-syntax-ns#"
   xmlns:svg="http://www.w3.org/2000/svg"
   xmlns="http://www.w3.org/2000/svg"
   xmlns:sodipodi="http://sodipodi.sourceforge.net/DTD/sodipodi-0.dtd"
   xmlns:inkscape="http://www.inkscape.org/namespaces/inkscape"
   id="Layer_1"
   data-name="Layer 1"
   viewBox="-1 0 124.72439 109.6063"
   version="1.1"
   sodipodi:docname="rvifile2.svg"
   width="33mm"
   height="29mm"
   inkscape:version="0.92.5 (2060ec1f9f, 2020-04-08)">
  <metadata
     id="metadata3790">
    <rdf:RDF>
      <cc:Work
         rdf:about="">
        <dc:format>image/svg+xml</dc:format>
        <dc:type
           rdf:resource="http://purl.org/dc/dcmitype/StillImage" />
        <dc:title>toolbox-repairing</dc:title>
      </cc:Work>
    </rdf:RDF>
  </metadata>
  <sodipodi:namedview
     pagecolor="#ffffff"
     bordercolor="#666666"
     borderopacity="1"
     objecttolerance="10"
     gridtolerance="10"
     guidetolerance="10"
     inkscape:pageopacity="0"
     inkscape:pageshadow="2"
     inkscape:window-width="1920"
     inkscape:window-height="1049"
     id="namedview3788"
     showgrid="false"
     scale-x="1.4"
     height="1"
     units="mm"
     viewbox-width="95.6"
     viewbox-x="-1"
     inkscape:zoom="2.14995"
     inkscape:cx="61.439999"
     inkscape:cy="17.67483"
     inkscape:window-x="1920"
     inkscape:window-y="0"
     inkscape:window-maximized="1"
     inkscape:current-layer="Layer_1" />
  <defs
     id="defs3781">
    <style
       id="style3779">.cls-1{fill-rule:evenodd;}</style>
    <style
       id="style3993">.cls-1{fill-rule:evenodd;}</style>
  </defs>
  <title
     id="title3783">toolbox-repairing</title>
  <g
     style="clip-rule:evenodd;fill-rule:evenodd;image-rendering:optimizeQuality;shape-rendering:geometricPrecision;text-rendering:geometricPrecision"
     id="g4038"
     transform="matrix(0.22795229,0,0,0.21240342,12.458932,1.0415906)">
    <path
       id="path4027"
       d="m 324.87,279.77 c 32.01,0 61.01,13.01 82.03,34.02 21.09,21 34.1,50.05 34.1,82.1 0,32.06 -13.01,61.11 -34.02,82.11 l -1.32,1.22 c -20.92,20.29 -49.41,32.8 -80.79,32.8 -32.06,0 -61.1,-13.01 -82.1,-34.02 -21.01,-21 -34.02,-50.05 -34.02,-82.11 0,-32.06 13.01,-61.1 34.02,-82.1 21,-21.01 50.04,-34.02 82.1,-34.02 z M 243.11,38.08 v 54.18 c 0.99,12.93 5.5,23.09 13.42,29.85 8.2,7.01 20.46,10.94 36.69,11.23 l 37.92,-0.04 z m 91.21,120.49 -41.3,-0.04 c -22.49,-0.35 -40.21,-6.4 -52.9,-17.24 -13.23,-11.31 -20.68,-27.35 -22.19,-47.23 l -0.11,-1.74 V 25.29 H 62.87 c -10.34,0 -19.75,4.23 -26.55,11.03 -6.8,6.8 -11.03,16.21 -11.03,26.55 v 336.49 c 0,10.3 4.25,19.71 11.06,26.52 6.8,6.8 16.22,11.05 26.52,11.05 h 119.41 c 2.54,8.79 5.87,17.25 9.92,25.29 H 62.87 c -17.28,0 -33.02,-7.08 -44.41,-18.46 C 7.08,432.37 0,416.64 0,399.36 V 62.87 C 0,45.61 7.08,29.89 18.45,18.51 29.89,7.08 45.61,0 62.87,0 h 173.88 c 4.11,0 7.76,1.96 10.07,5 l 109.39,118.34 c 2.24,2.43 3.34,5.49 3.34,8.55 l 0.03,119.72 c -8.18,-1.97 -16.62,-3.25 -25.26,-3.79 z m -229.76,54.49 c -6.98,0 -12.64,-5.66 -12.64,-12.64 0,-6.99 5.66,-12.65 12.64,-12.65 h 150.49 c 6.98,0 12.65,5.66 12.65,12.65 0,6.98 -5.67,12.64 -12.65,12.64 z m 0,72.3 c -6.98,0 -12.64,-5.66 -12.64,-12.65 0,-6.98 5.66,-12.64 12.64,-12.64 h 142.52 c 3.71,0 7.05,1.6 9.37,4.15 a 149.03,149.03 0 0 0 -30.54,21.14 z m 0,72.3 c -6.98,0 -12.64,-5.66 -12.64,-12.65 0,-6.98 5.66,-12.64 12.64,-12.64 h 86.2 c -3.82,8.05 -6.95,16.51 -9.29,25.29 z m 255.53,-21.34 c -1.53,-1.05 -3.28,-1.53 -5.05,-1.17 -1.76,0.35 -3.28,1.28 -4.33,2.8 l -6,8.47 c -4.05,-1.81 -9.22,-3 -13.6,-3.64 l -1.89,-11.04 c -0.36,-1.87 -1.3,-3.27 -2.7,-4.35 -1.53,-1.04 -3.17,-1.4 -5.04,-1.04 l -13.86,2.46 c -1.76,0.35 -3.18,1.18 -4.35,2.7 -1.04,1.52 -1.52,3.18 -1.17,5.05 l 1.77,10.1 c -4.27,1.79 -8.5,4.37 -12.09,7.28 l -9.41,-6.47 c -1.52,-1.05 -3.15,-1.52 -4.92,-1.17 -1.77,0.36 -3.29,1.3 -4.33,2.82 l -7.99,11.39 c -1.07,1.52 -1.53,3.28 -1.17,5.04 0.34,1.88 1.27,3.29 2.82,4.34 l 8.44,5.99 c -1.78,4.02 -3,9.26 -3.63,13.61 l -11.03,1.89 c -1.89,0.36 -3.29,1.29 -4.36,2.7 -1.06,1.53 -1.4,3.16 -1.06,5.04 l 2.47,13.85 c 0.35,1.77 1.18,3.17 2.7,4.35 1.53,1.06 3.18,1.53 5.06,1.18 l 10.09,-1.77 c 1.86,4.42 4.4,8.4 7.28,12.22 l -6.47,9.26 c -1.05,1.53 -1.52,3.18 -1.16,4.93 0.35,1.76 1.3,3.29 2.82,4.33 l 11.49,8.11 c 1.53,1.06 3.3,1.41 5.04,1.06 1.77,-0.35 3.3,-1.17 4.48,-2.69 l 5.97,-8.58 c 4.12,1.82 9.17,2.97 13.63,3.65 l 1.88,11.03 c 0.34,1.89 1.28,3.29 2.69,4.35 1.54,1.05 3.18,1.4 5.06,1.05 l 13.84,-2.47 c 1.77,-0.35 3.17,-1.17 4.35,-2.69 1.05,-1.53 1.51,-3.17 1.16,-5.04 l -1.75,-10.1 c 4.47,-1.88 8.35,-4.41 12.2,-7.29 l 9.29,6.46 c 1.53,1.05 3.16,1.52 5.04,1.16 1.88,-0.33 3.29,-1.27 4.33,-2.81 l 8.11,-11.51 c 1.05,-1.52 1.42,-3.29 1.05,-5.03 -0.34,-1.76 -1.16,-3.29 -2.68,-4.48 l -8.58,-5.86 c 1.78,-4.02 3,-9.25 3.63,-13.6 l 11.04,-1.89 c 1.88,-0.36 3.28,-1.3 4.36,-2.7 1.05,-1.52 1.4,-3.17 1.05,-5.04 l -2.47,-13.86 c -0.35,-1.77 -1.17,-3.17 -2.69,-4.34 -1.53,-1.07 -3.19,-1.54 -5.06,-1.18 l -10.1,1.77 c -1.94,-4.4 -4.27,-8.35 -7.28,-12.09 l 6.47,-9.4 c 1.05,-1.53 1.52,-3.17 1.16,-4.93 -0.35,-1.76 -1.3,-3.29 -2.82,-4.35 l -11.38,-7.97 z m -35.2,29.98 c 16.34,0 29.6,13.25 29.6,29.6 0,16.34 -13.26,29.59 -29.6,29.59 -16.34,0 -29.6,-13.25 -29.6,-29.59 0,-16.35 13.26,-29.6 29.6,-29.6 z"
       inkscape:connector-curvature="0" />
  </g>
</svg>
