<?xml version="1.0" encoding="UTF-8" standalone="no"?>
<svg
   xmlns:dc="http://purl.org/dc/elements/1.1/"
   xmlns:cc="http://creativecommons.org/ns#"
   xmlns:rdf="http://www.w3.org/1999/02/22-rdf-syntax-ns#"
   xmlns:svg="http://www.w3.org/2000/svg"
   xmlns="http://www.w3.org/2000/svg"
   xmlns:sodipodi="http://sodipodi.sourceforge.net/DTD/sodipodi-0.dtd"
   xmlns:inkscape="http://www.inkscape.org/namespaces/inkscape"
   id="Layer_1"
   data-name="Layer 1"
   viewBox="-1 0 124.72439 109.6063"
   version="1.1"
   sodipodi:docname="settings2.svg"
   width="33mm"
   height="29mm"
   inkscape:version="0.92.5 (2060ec1f9f, 2020-04-08)">
  <metadata
     id="metadata3790">
    <rdf:RDF>
      <cc:Work
         rdf:about="">
        <dc:format>image/svg+xml</dc:format>
        <dc:type
           rdf:resource="http://purl.org/dc/dcmitype/StillImage" />
        <dc:title>toolbox-repairing</dc:title>
      </cc:Work>
    </rdf:RDF>
  </metadata>
  <sodipodi:namedview
     pagecolor="#ffffff"
     bordercolor="#666666"
     borderopacity="1"
     objecttolerance="10"
     gridtolerance="10"
     guidetolerance="10"
     inkscape:pageopacity="0"
     inkscape:pageshadow="2"
     inkscape:window-width="1920"
     inkscape:window-height="1049"
     id="namedview3788"
     showgrid="false"
     scale-x="1.4"
     height="1"
     units="mm"
     viewbox-width="95.6"
     viewbox-x="-1"
     inkscape:zoom="2.14995"
     inkscape:cx="61.439999"
     inkscape:cy="17.67483"
     inkscape:window-x="1920"
     inkscape:window-y="0"
     inkscape:window-maximized="1"
     inkscape:current-layer="Layer_1" />
  <defs
     id="defs3781">
    <style
       id="style3779">.cls-1{fill-rule:evenodd;}</style>
    <style
       id="style3993">.cls-1{fill-rule:evenodd;}</style>
  </defs>
  <title
     id="title3783">toolbox-repairing</title>
  <g
     id="g4101"
     transform="translate(0.81883207,9.5040525)">
    <path
       id="path4099"
       d="M 66.605,9.676 C 65.814,8.885 64.887,8.495 63.813,8.495 c -1.073,0 -2.013,0.39 -2.791,1.181 l -4.255,4.241 c -1.141,-0.738 -2.348,-1.383 -3.61,-1.96 -1.261,-0.577 -2.55,-1.072 -3.852,-1.502 V 3.931 C 49.305,2.831 48.93,1.905 48.164,1.14 47.401,0.375 46.475,0 45.374,0 h -8.187 c -1.047,0 -1.958,0.375 -2.75,1.14 -0.778,0.765 -1.168,1.691 -1.168,2.791 v 5.973 c -1.368,0.321 -2.697,0.724 -3.973,1.221 -1.287,0.496 -2.508,1.061 -3.663,1.691 L 20.922,8.172 C 20.184,7.394 19.285,6.991 18.198,6.991 c -1.075,0 -2,0.403 -2.792,1.181 l -5.73,5.745 c -0.791,0.791 -1.181,1.718 -1.181,2.79 0,1.074 0.39,2.014 1.181,2.792 l 4.242,4.255 c -0.738,1.14 -1.382,2.348 -1.959,3.608 -0.578,1.262 -1.073,2.552 -1.504,3.853 H 3.933 c -1.102,0 -2.028,0.375 -2.792,1.14 C 0.376,33.121 0,34.047 0,35.148 v 8.187 c 0,1.045 0.376,1.959 1.14,2.751 0.764,0.777 1.691,1.167 2.792,1.167 h 5.971 c 0.322,1.367 0.724,2.696 1.222,3.971 0.498,1.289 1.061,2.537 1.691,3.744 l -4.644,4.63 c -0.779,0.739 -1.181,1.638 -1.181,2.726 0,1.073 0.402,2 1.181,2.792 l 5.745,5.811 c 0.791,0.738 1.717,1.102 2.792,1.102 1.072,0 2.011,-0.363 2.791,-1.102 l 4.254,-4.321 c 1.14,0.737 2.349,1.381 3.61,1.96 1.262,0.575 2.55,1.073 3.852,1.502 v 6.523 c 0,1.1 0.376,2.025 1.14,2.789 0.765,0.767 1.692,1.143 2.792,1.143 h 8.186 c 1.047,0 1.959,-0.376 2.751,-1.143 0.777,-0.764 1.167,-1.689 1.167,-2.789 v -5.973 c 1.369,-0.321 2.697,-0.724 3.972,-1.222 1.289,-0.496 2.538,-1.061 3.744,-1.691 l 4.63,4.645 c 0.739,0.778 1.65,1.181 2.753,1.181 1.112,0 2.025,-0.402 2.765,-1.181 l 5.811,-5.744 c 0.738,-0.793 1.102,-1.719 1.102,-2.792 0,-1.073 -0.363,-2.013 -1.102,-2.791 l -4.321,-4.255 c 0.738,-1.141 1.382,-2.348 1.96,-3.609 0.575,-1.261 1.072,-2.551 1.502,-3.852 h 6.523 c 1.1,0 2.025,-0.378 2.789,-1.141 0.766,-0.766 1.142,-1.691 1.142,-2.792 v -8.186 c 0,-1.047 -0.376,-1.958 -1.142,-2.752 -0.764,-0.778 -1.689,-1.167 -2.789,-1.167 h -5.973 c -0.322,-1.315 -0.725,-2.63 -1.222,-3.931 -0.496,-1.316 -1.061,-2.55 -1.691,-3.706 l 4.645,-4.709 c 0.778,-0.738 1.181,-1.638 1.181,-2.724 0,-1.075 -0.402,-2 -1.181,-2.792 z m 45.313,43.973 c -0.506,-0.355 -1.044,-0.479 -1.627,-0.376 -0.583,0.101 -1.057,0.401 -1.401,0.904 l -1.908,2.702 c -0.688,-0.292 -1.402,-0.526 -2.144,-0.721 -0.737,-0.194 -1.484,-0.343 -2.231,-0.451 l -0.616,-3.538 c -0.105,-0.596 -0.395,-1.063 -0.884,-1.406 -0.486,-0.343 -1.024,-0.459 -1.621,-0.354 l -4.441,0.774 c -0.566,0.099 -1.025,0.39 -1.383,0.879 -0.35,0.487 -0.475,1.027 -0.369,1.625 l 0.564,3.238 c -0.713,0.303 -1.395,0.648 -2.037,1.038 -0.654,0.392 -1.263,0.812 -1.828,1.264 l -2.995,-2.073 c -0.476,-0.352 -0.999,-0.484 -1.59,-0.383 -0.583,0.103 -1.046,0.407 -1.402,0.904 l -2.564,3.659 c -0.354,0.504 -0.479,1.044 -0.377,1.623 0.102,0.585 0.402,1.057 0.905,1.404 l 2.703,1.907 c -0.292,0.687 -0.527,1.402 -0.721,2.144 -0.195,0.738 -0.343,1.484 -0.452,2.231 l -3.538,0.616 c -0.596,0.104 -1.063,0.396 -1.406,0.884 -0.344,0.486 -0.458,1.025 -0.354,1.621 l 0.773,4.441 c 0.099,0.566 0.388,1.026 0.88,1.383 0.487,0.35 1.027,0.474 1.624,0.369 l 3.239,-0.564 c 0.304,0.713 0.648,1.394 1.038,2.039 0.392,0.652 0.815,1.274 1.272,1.869 l -2.081,2.952 c -0.353,0.475 -0.485,0.999 -0.383,1.59 0.102,0.583 0.406,1.047 0.904,1.402 l 3.665,2.607 c 0.499,0.325 1.036,0.436 1.618,0.334 0.583,-0.101 1.059,-0.389 1.41,-0.862 l 1.899,-2.746 c 0.688,0.293 1.403,0.528 2.144,0.721 0.738,0.194 1.484,0.343 2.23,0.45 l 0.618,3.54 c 0.104,0.597 0.396,1.063 0.883,1.404 0.486,0.344 1.025,0.46 1.621,0.356 l 4.439,-0.775 c 0.569,-0.1 1.028,-0.389 1.386,-0.879 0.349,-0.488 0.474,-1.025 0.368,-1.624 l -0.565,-3.241 c 0.713,-0.303 1.396,-0.646 2.04,-1.037 0.651,-0.393 1.274,-0.814 1.87,-1.27 l 2.951,2.081 c 0.475,0.352 1.008,0.483 1.604,0.378 0.604,-0.104 1.061,-0.409 1.388,-0.901 l 2.609,-3.665 c 0.324,-0.5 0.435,-1.036 0.332,-1.618 -0.101,-0.583 -0.387,-1.059 -0.86,-1.41 l -2.748,-1.899 c 0.294,-0.688 0.528,-1.403 0.722,-2.144 0.194,-0.738 0.342,-1.484 0.452,-2.232 l 3.537,-0.616 c 0.597,-0.104 1.063,-0.394 1.405,-0.883 0.344,-0.488 0.459,-1.024 0.355,-1.621 l -0.775,-4.441 c -0.099,-0.567 -0.389,-1.025 -0.879,-1.384 -0.487,-0.351 -1.027,-0.473 -1.624,-0.369 l -3.239,0.565 c -0.299,-0.684 -0.642,-1.358 -1.035,-2.017 -0.395,-0.667 -0.816,-1.283 -1.267,-1.85 l 2.074,-2.995 c 0.353,-0.475 0.484,-0.998 0.38,-1.59 -0.101,-0.583 -0.405,-1.045 -0.904,-1.401 z M 99.16,64.929 c 1.071,-0.188 2.118,-0.162 3.147,0.075 1.025,0.246 1.953,0.657 2.777,1.231 0.825,0.582 1.523,1.316 2.101,2.198 0.573,0.889 0.95,1.865 1.139,2.936 0.187,1.072 0.16,2.119 -0.076,3.15 -0.246,1.023 -0.655,1.949 -1.233,2.776 -0.582,0.823 -1.314,1.522 -2.196,2.1 -0.889,0.573 -1.865,0.951 -2.937,1.139 -1.07,0.186 -2.117,0.159 -3.148,-0.077 -1.025,-0.246 -1.95,-0.655 -2.777,-1.232 -0.822,-0.582 -1.522,-1.314 -2.1,-2.196 -0.572,-0.889 -0.952,-1.866 -1.138,-2.937 -0.188,-1.07 -0.162,-2.117 0.075,-3.148 0.246,-1.025 0.657,-1.951 1.231,-2.778 0.583,-0.821 1.316,-1.521 2.198,-2.099 0.891,-0.573 1.867,-0.951 2.937,-1.138 z M 40.262,24.224 c 2.201,0 4.28,0.417 6.252,1.248 1.961,0.846 3.666,1.986 5.115,3.421 1.435,1.449 2.575,3.156 3.421,5.113 0.833,1.973 1.248,4.054 1.248,6.254 0,2.201 -0.415,4.282 -1.248,6.254 -0.846,1.959 -1.986,3.666 -3.421,5.115 -1.449,1.436 -3.154,2.575 -5.115,3.421 -1.972,0.833 -4.051,1.248 -6.252,1.248 -2.201,0 -4.282,-0.415 -6.255,-1.248 -1.958,-0.846 -3.664,-1.985 -5.112,-3.421 -1.437,-1.449 -2.577,-3.155 -3.423,-5.115 -0.831,-1.972 -1.248,-4.053 -1.248,-6.254 0,-2.2 0.417,-4.281 1.248,-6.254 0.846,-1.958 1.986,-3.664 3.423,-5.113 1.448,-1.435 3.154,-2.576 5.112,-3.421 1.972,-0.831 4.054,-1.248 6.255,-1.248 z"
       inkscape:connector-curvature="0" />
  </g>
</svg>
